<?xml version="1.0" encoding="UTF-8"?>
<svg width="32" height="32" viewBox="0 0 32 32" fill="none" xmlns="http://www.w3.org/2000/svg">
  <!-- Background -->
  <rect width="32" height="32" rx="6" fill="#0A0A0A"/>
  
  <!-- Face -->
  <path d="M16 8C11.5817 8 8 11.5817 8 16C8 20.4183 11.5817 24 16 24C20.4183 24 24 20.4183 24 16C24 11.5817 20.4183 8 16 8Z" fill="#FFD93D"/>
  
  <!-- Hair -->
  <path d="M8 16C8 16 9 12 16 12C23 12 24 16 24 16" stroke="#0A0A0A" stroke-width="2" stroke-linecap="round"/>
  
  <!-- Glasses -->
  <path d="M12 14C12 14 13 13 16 13C19 13 20 14 20 14" stroke="#0A0A0A" stroke-width="1.5" stroke-linecap="round"/>
  <path d="M14 14C14 14 14.5 13.5 16 13.5C17.5 13.5 18 14 18 14" stroke="#0A0A0A" stroke-width="1.5" stroke-linecap="round"/>
  
  <!-- Eyes -->
  <circle cx="13" cy="14" r="1" fill="#0A0A0A"/>
  <circle cx="19" cy="14" r="1" fill="#0A0A0A"/>
  
  <!-- Smile -->
  <path d="M13 18C13 18 14 19 16 19C18 19 19 18 19 18" stroke="#0A0A0A" stroke-width="1.5" stroke-linecap="round"/>
  
  <!-- Laptop -->
  <rect x="10" y="20" width="12" height="2" rx="1" fill="#0A0A0A"/>
  <rect x="9" y="22" width="14" height="1" rx="0.5" fill="#0A0A0A"/>
  <rect x="11" y="21" width="10" height="1" fill="#FFFFFF"/>
</svg> 